# xmcd
#
# Track frame offsets: 
#        150
#        11473
#        22990
#        35168
#        45849
#        57770
#        71485
#        85212
#        99288
#        111531
#        121986
#        139055
#        151575
#        163516
#        171284
#        184057
#        194005
#        205390
#        220396
#        235462
#
# Disc length: 3315 seconds
#
# Revision: 2
# Processed by: cddbd v1.5.2PL0 Copyright (c) Steve Scherf et al.
# Submitted via: ExactAudioCopy v1.0b1
#
DISCID=130cf114
DTITLE=Niemen - Od poczatku CD1 - Sen o Warszawie
DYEAR=2002
DGENRE=Blues
TTITLE0=Felicidade
TTITLE1=El soldado
TTITLE2=Teach Me How Do Twist
TTITLE3=Locomotion
TTITLE4=Tylko nie mow mi o tym
TTITLE5=Wiem, ze nie wrocisz
TTITLE6=Czy mnie jeszcze pamietasz
TTITLE7=Czas jak rzeka
TTITLE8=Jak mozna wierzc tylko slowom
TTITLE9=Ach jakie oczy
TTITLE10=Ptaki spiewaja-kocham
TTITLE11=Nie badz taki Bitels
TTITLE12=Zabawa w ciuciubabke
TTITLE13=Hippy Hippy Shake
TTITLE14=Stoje w oknie
TTITLE15=Jeszcze sen
TTITLE16=Czy wiesz o tym, ze
TTITLE17=Sen o Warszawie
TTITLE18=Byc moze i ty
TTITLE19=Hej dziewczyno hej
EXTD=
EXTT0=
EXTT1=
EXTT2=
EXTT3=
EXTT4=
EXTT5=
EXTT6=
EXTT7=
EXTT8=
EXTT9=
EXTT10=
EXTT11=
EXTT12=
EXTT13=
EXTT14=
EXTT15=
EXTT16=
EXTT17=
EXTT18=
EXTT19=
PLAYORDER=
